<?xml version="1.0" encoding="utf-8"?>
<!-- Generator: Adobe Illustrator 25.0.0, SVG Export Plug-In . SVG Version: 6.00 Build 0)  -->
<svg version="1.1" id="Layer_1" xmlns="http://www.w3.org/2000/svg" xmlns:xlink="http://www.w3.org/1999/xlink" x="0px" y="0px"
	 viewBox="0 0 5000 5000" style="enable-background:new 0 0 5000 5000;" xml:space="preserve">
<style type="text/css">
	.st0{fill:none;}
	.st1{fill:#FFFFFF;}
	.st2{fill-rule:evenodd;clip-rule:evenodd;fill:#DE2F8C;}
	.st3{fill-rule:evenodd;clip-rule:evenodd;fill:#FFFFFF;}
</style>
<rect class="st0" width="5000" height="5000"/>
<g>
	<path class="st1" d="M3352.98,2127.97l0.04,0.02c28.69,14.67,50.36,28.3,67.35,41.77c-4.34,0.97-8.73,1.99-13.2,3.08h-0.38
		c-8.08-0.04-20.15,0.51-34.44,1.56c-5.91,0.43-12.42,0.96-19.37,1.57v145.2c9.39-1.5,18.77-2.91,28.14-4.24
		c22.59-3.21,36.8-5.73,44.2-7.61c30.44-0.76,57.75-3.65,81.89-8.17c6.94,20.93,11.62,44.3,14.69,67.54
		c7.67,57.96,5.06,112.07,2.5,132.01c-13.62,105.83-34.46,205.72-75.09,291.12c-23.89,50.23-55.05,96.18-96.34,136.35v173.39
		c103.82-66.27,172.73-152.33,219.76-251.2c48.27-101.49,72.29-214.29,87.43-331.94c3.35-26,6.87-95.42-2.62-167.25
		c-21.86-165.49-94.27-269.25-242.57-345.07c-18-9.2-39.49-15.52-62.01-19.78V2127.97z M3285.93,2117.05l-0.36-2.26
		c25.58,1.22,51.02,4.82,67.41,13.18v-141.66c-58.62-11.1-124.24-8.27-153.7-6.14c-20.26-25.12-45.83-47.78-76.54-67.3
		c-9.35-5.95-19.9-11.93-31.63-17.92c-59.12-30.18-123.26-48.96-186.76-53.55v137.3c41.83,4.32,84.58,17.61,124.79,38.14
		c6.54,3.33,13.33,7.24,20.33,11.7c34.94,22.23,57.03,49.85,65.39,79.94c8.3,29.88,3.61,64.43-14.92,100.73
		c-2.96,5.81-6.73,12.32-11.32,19.53c-1.4,2.2-2.87-2.2-9.39-1.14c-25.35,4.15-55.78,0.61-72.34-3.29
		c-9.58-2.25-34.22-13.87-61.82-27.9c-13.6-6.92-27.55-14.3-40.72-21.47v252.09c23.76-15.02,50.17-25.67,77.44-30.68
		c55.08-10.12,109.42-22.01,163.72-33.89c69.36-15.17,138.68-30.34,207.48-41.31v-145.2c-19.73,1.72-43.15,4.11-67.3,6.98
		C3289.5,2161.38,3289.19,2139.05,3285.93,2117.05L3285.93,2117.05z M3352.98,2928.16v173.39c-6.72,4.28-13.57,8.48-20.58,12.6
		c-66.61,39.13-148.11,50.94-227.8,43.36c-71.41-6.78-142.6-29.37-200.25-61.66v-184.05c14.17,21.65,29.14,39.88,44.21,50.44
		c44.17,30.96,106.19,53.25,169.19,59.23c53.04,5.04,105.36-1.68,145.19-25.08C3297.37,2976.17,3327.15,2953.3,3352.98,2928.16z
		 M2904.34,1841.41v137.3c-28.62-2.96-56.79-1.72-83.4,4.28c-27.46,6.19-53.44,17.8-76.6,35.53v-155.3
		c15.12-5.69,30.64-10.3,46.47-13.87C2827.58,1841.07,2865.85,1838.63,2904.34,1841.41L2904.34,1841.41z M2904.34,2174.96v252.09
		c-20.1,12.7-38.3,28.52-53.53,46.67c-29.77,35.5-47.39,79.56-43.89,125.6c2.38,31.2,7.97,75.16,16.42,117.03
		c6.23,30.9,13.86,60.13,22.58,80.72c13.65,32.23,30.46,68.78,49.3,100.16c2.99,4.99,6.03,9.86,9.11,14.57v184.05
		c-11.96-6.7-23.33-13.83-34.01-21.31c-35.77-25.07-66.34-64.04-92.04-106.82c-10.01,2.21-21.36,3.58-33.95,3.37v-624.28
		c16.12-15.36,34.22-30.3,54.46-44.86c-19.24-11.88-36.43-24.15-52.62-37.76l-1.84-1.55v-187.6c6.94,2.1,13.57,5.32,19.61,9.6
		l0.12-0.16c0.15,0.11,53.07,37.64,76.92,53.74C2850.67,2144.77,2875.66,2159.35,2904.34,2174.96z M2744.34,1863.23v155.3
		c-20.76,15.9-39.24,36.72-54.46,62.97c16.87-9.93,36.66-11.84,54.46-6.44v187.6c-26.35-22.41-49.66-48.12-74.51-81.21
		c-10.93-14.55-15.17-32.06-13.24-48.81c-5.9,7.8-11.99,15.4-18.05,22.68v-227.14C2670.24,1899.06,2706.01,1877.66,2744.34,1863.23
		L2744.34,1863.23z M2744.34,2346.83v624.28c-8-0.12-16.5-0.88-25.48-2.47c-12.69-2.23-45.18-4.59-80.31-6.65v-136.85
		c15.64,0.9,31.27,1.88,45.67,2.91c-17.25-47.32-30.76-92.19-39.2-135.17c0.21,19.79-2.18,36.43-6.47,50v-195.24
		c0.43-3.17,0.91-6.32,1.44-9.47C2651.75,2467.35,2684.2,2404.15,2744.34,2346.83z M2638.54,1928.17v227.14l-3.3,3.94v-228
		C2636.34,1930.21,2637.44,1929.19,2638.54,1928.17L2638.54,1928.17z M2638.54,2547.63v195.24c-1,3.16-2.11,6.15-3.3,8.97v-130.75
		l0.71,3.01c-0.35-5.79-0.59-11.56-0.71-17.28v-47.93c0.15,8.62,0.22,16.58,0.22,23.76
		C2635.94,2570.86,2636.95,2559.19,2638.54,2547.63L2638.54,2547.63z M2638.54,2825.13v136.85l-3.3-0.19v-136.86L2638.54,2825.13z
		 M2635.24,1931.24v228c-11.3,13.35-22.38,25.46-31.9,35.46c19.61,100.63,29.78,264.45,31.75,356.32l0.15,7.86v47.93l-0.05-2.94
		c-0.06,1.91-0.13,3.71-0.21,5.37l-0.44,8.93l0.71,2.92v130.75c-4.98,11.73-11.58,20.58-19.23,26.62
		c-6.36,25.32-14.08,40.25-23.15,44.21c13.42,0.67,27.88,1.43,42.38,2.26v136.86c-39.4-2.27-81.43-4.15-102.17-5.03
		c-4.59,3.79-9.83,7.48-15.96,11.16c-11.58,6.95-25.05,13.24-43.33,20.23c-20.1,7.71-60.92,8.95-106.2,7.19l-0.97-0.04v-136.86
		l6.19,0.26c28.85,1.12,50.92,1.83,51.93,1.45c7.55-2.89,13.05-5.09,16.78-6.71c3.62-8.46,9.31-23.17,9.34-23.23
		c13.59-35.22,53.18-52.76,88.4-39.16c15.6,6.02,27.73,17.14,35.22,30.72l6.77,0.33c-10.99-5.34-23.57-23.69-37.77-55.7
		c-23.58-24.03-42.67-67.72-45.3-130.27l-0.12-0.41c-2.44-8.3-4.81-21.86-6.92-41.34c-3.93-36.26-6.8-74.37-9.69-112.7
		c-8.03-106.76-6.52-214.58-11.38-215.18l-10.05-1.22l-54.04,6.01l-3.81,92.66c-1.04,24.83-15.21,45.99-35.53,57.1v-282.81
		l83.23-9.26c6.16-0.98,12.54-1.12,19.03-0.33l6.96,0.85c1.75-2.09,3.64-4.1,5.68-6c0.16-0.16,59.05-54.93,85.41-102.89
		C2586.33,1985.29,2609.38,1955.65,2635.24,1931.24z M2366.61,2138.25v282.81c-10.52,5.75-22.68,8.8-35.53,8.27
		c-33.86-1.42-60.92-27.26-64.91-59.83l-0.2,0.03l-8.84-71.53l-45.08,13.91c-0.3,0.09-0.91,0.32-1.83,0.67l-0.17,0.06l0.07,0.18
		c-39.96,15.32-55.31,96.11-57.83,187.2c-2.98,108.39,15.58,225.76,35.34,289.76c1.25,4.04,3.2,9.53,5.84,16.42
		c2.37,6.17,8.95,14.92,16.38,23.47c9.51,10.92-3.01,16.34,2.3,17.1c3.96,0.56,87.14,8.77,154.45,11.68v136.86
		c-74.2-2.93-169.43-12.32-173.85-12.95c-13.22-1.87-57.29-29.77-85.83-62.55c-16.82-19.32-32.84-42.06-41.46-64.54
		c-2.09-5.46-4.9-13.91-8.39-25.18c-23.08-74.73-44.78-210.38-41.38-334.09c3.89-141,41.57-271.41,145.35-311.18l0.07,0.18
		c3.17-1.21,6.73-2.43,10.63-3.63l118.57-36.6c5.15-1.99,10.61-3.39,16.33-4.1c8.61-1.07,17.04-0.48,24.98,1.5l0.94-0.11
		L2366.61,2138.25z"/>
	<path class="st2" d="M3190.67,2049.55c23,40.29,40.48,99.14,21.21,142.37c-8.79,19.71-35.61,77.66-35.61,77.66
		c85.21-21.08,330.73-39.56,195.14-20.32c-135.57,19.24-267.25,55.07-401.84,79.8c-2.31,0.42-4.61,0.89-6.9,1.37v718.55
		c101.42,47.78,239.98,62.11,334.99,6.28c204.88-120.36,265.87-322.23,294.62-545.72c4.8-37.34,9.91-177.19-35.21-266.39
		c-36.64-72.46-63.94-120.32-173.07-176.12C3321.57,2035.12,3190.67,2049.55,3190.67,2049.55L3190.67,2049.55z M2962.67,2280.54
		v-360.96c33.21,8.02,66.08,20.31,97.45,36.32c129.33,66.01,163.55,188.06,86.33,309.49c-26.4,41.52-117.93,34.28-155.45,25.45
		C2984.12,2289.22,2974.29,2285.55,2962.67,2280.54z M2962.67,2330.44c-125.38,26.42-233.99,142.07-223.96,273.94
		c4.53,59.29,19.95,161.98,44.28,219.47c28.85,68.13,72.32,156.6,126.45,194.55c16.03,11.24,33.97,21.51,53.23,30.59V2330.44
		L2962.67,2330.44z M2962.67,1919.58v360.96c-51.7-22.3-138.86-71.25-159.92-85.48c-25.79-17.42-78.28-54.63-78.28-54.63
		c43.97,58.54,81.91,89.98,147.52,124.41c34.61,18.16,66.1,34,66.1,34c-294.95,146.26-268.84,323.9-154.45,594.39
		c0,0-16.31,14.44-52.91,8c-36.6-6.45-208.21-13.33-208.21-13.33l-7.9-33.06c0,0-12.64,32.77-18.67,41.89
		c-6.04,9.12-15.82,15.59-46.69,27.43c-30.87,11.84-240.31-8.68-246.79-9.59c-6.48-0.93-58.87-47.02-72.98-83.84
		c-45.85-119.62-96.94-534.89,62.43-584.1l123.15-38.02l18.87,152.51l6.21-151.2l120.47-13.4l17.68,2.15
		c65.29,7.96,63.83,231.8,80.82,388.51c16.27,150.09,8.28-275.83-30.93-413.84c0,0,67.43-62.71,98.8-119.79
		C2699.35,1921.9,2833.65,1888.44,2962.67,1919.58z"/>
	<polygon class="st3" points="1805.27,2022.46 2210.35,2039.21 2615.43,2055.96 2614.56,2007.75 2613.69,1959.55 2209.47,1991 	"/>
	<polygon class="st3" points="1706.83,2159.42 2111.91,2176.17 2516.99,2192.92 2516.12,2144.72 2515.24,2096.51 2111.03,2127.97 	
		"/>
	<polygon class="st3" points="1268.12,2362.73 1673.2,2379.48 2078.28,2396.23 2077.41,2348.02 2076.53,2299.81 1672.32,2331.27 	
		"/>
	<polygon class="st3" points="1276.68,2799.56 1681.77,2816.32 2086.85,2833.06 2085.97,2784.85 2085.1,2736.64 1680.89,2768.11 	
		"/>
	<polygon class="st3" points="1651.2,2949.46 1903.29,2966.21 2205.01,2976.55 2154.28,2886.54 1902.74,2918 	"/>
	<polygon class="st3" points="1738.92,3105.75 2320.46,3122.5 3016.5,3132.84 2899.49,3042.82 2319.21,3074.29 	"/>
	<polygon class="st3" points="764.68,2602.56 1406.49,2619.31 2048.31,2636.06 2046.92,2587.85 2045.53,2539.64 1405.1,2571.11 	"/>
</g>
</svg>
