<?xml version="1.0" encoding="utf-8"?>
<!-- Generator: Adobe Illustrator 25.0.0, SVG Export Plug-In . SVG Version: 6.00 Build 0)  -->
<svg version="1.1" id="Calque_1" xmlns="http://www.w3.org/2000/svg" xmlns:xlink="http://www.w3.org/1999/xlink" x="0px" y="0px"
	 viewBox="0 0 800 600" style="enable-background:new 0 0 800 600;" xml:space="preserve">
<style type="text/css">
	.st0{fill:#2C2C2C;stroke:#FFFFFF;stroke-miterlimit:10;}
	.st1{opacity:0.3;fill:#2C2C2C;stroke:#FFFFFF;stroke-miterlimit:10;}
</style>
<g>
	<g>
		<path class="st0" d="M303.13,228.66l11.12,7.57l5.69,6.14c0,0,10.27,3.25,12.51,5.12c2.24,1.87,7.62,4.68,8.16,5.67
			c0.54,0.99,2.7-2.82,2.7-2.82l3.91-0.42l2.66,10.19l2.7,1.06l5.04,0.17l4.74,4.59l3.66,10.36l5.38,2.81l2.14,4.64l5.38,2.81
			l17.86,12.5c0,0,16.06,10.5,17.17,11.78c1.11,1.28,2.16,3.95,2.16,3.95l7,1.89l10.96,7.84l6.77,4.24c0,0,6.82,6.73,10.43,10.73
			c3.6,4,20.18,12.3,24.71,14.66c4.53,2.37,11.51,8.83,11.51,8.83s-16.88-11.63-24.86-14.39c-7.98-2.76-17.08-6.11-17.03-7.49
			c0.05-1.38-5.61-8.21-13.36-9.44c-7.74-1.23-10.96-3.96-10.78-4.93c0.18-0.96-3.58-4.69-3.58-4.69l-8.46-1.25l-6.46-4.78
			c0,0-6.41-2.29-7.54-2.88c-1.13-0.59-7.88-5.52-9.83-7.25c-1.96-1.73-7.76-2.02-8.54-3.05c-3.58-4.69-5.33-8.07-6.03-8.78
			c-0.7-0.72-6.05-4.22-8.67-7.35c-2.63-3.13-11.71-7.17-11.71-7.17c-3.56-9.25-4.3-8.59-4.3-8.59l-5.48-3.92
			c0,0-5.33-8.07-6.18-8.51c-0.85-0.44-7.83-6.9-13.51-9.17c-2.58-4.51-7.55-10.63-7.55-10.63L303.13,228.66z"/>
		<path class="st1" d="M332.44,247.48c-2.23-1.87-12.5-5.12-12.5-5.12l-5.69-6.13l-11.12-7.58l10.46,10.04c0,0,2.31,2.85,4.6,6.1
			c3.02,1.01,9.12,3.16,10.78,4.55c2.24,1.87,7.62,4.68,8.16,5.67c0.47,0.87,2.19-1.95,2.61-2.66
			C338,251.06,334.22,248.98,332.44,247.48z"/>
	</g>
	<g>
		<path class="st0" d="M316.66,277.8l6.85,6.55l3.83,4.37c0,0,6.9,2.31,8.41,3.64c1.51,1.33,5.12,3.33,5.48,4.03
			c0.36,0.7,1.81-2,1.81-2l2.63-0.3l1.79,7.25l1.82,0.75l3.39,0.12l3.18,3.26l2.46,7.37l3.62,2l1.44,3.3l3.62,2l12.01,8.89
			c0,0,10.8,7.47,11.54,8.38c0.74,0.91,1.45,2.81,1.45,2.81l4.7,1.35l7.37,5.58l4.55,3.02c0,0,4.59,4.79,7.01,7.63
			c2.42,2.84,14.17,7.75,17.21,9.43c3.04,1.68,7.43,5.79,7.43,5.79s-10.89-7.02-16.25-8.98c-5.36-1.96-12.25-4.12-12.21-5.1
			c0.03-0.98-3.77-5.84-8.98-6.72c-5.2-0.87-7.37-2.82-7.25-3.5c0.12-0.68-2.41-3.33-2.41-3.33l-5.69-0.89l-4.34-3.4
			c0,0-4.31-1.63-5.07-2.05c-0.76-0.42-5.29-3.93-6.61-5.16c-1.32-1.23-5.21-1.44-5.74-2.17c-2.41-3.33-3.58-5.74-4.05-6.25
			c-0.47-0.51-4.07-3-5.83-5.23c-1.77-2.23-7.87-5.1-7.87-5.1c-2.39-6.58-2.89-6.11-2.89-6.11l-3.69-2.79c0,0-3.58-5.74-4.16-6.05
			c-0.57-0.32-5.26-4.91-9.08-6.52c-1.73-3.21-4.75-8.14-4.75-8.14L316.66,277.8z"/>
		<path class="st0" d="M316.66,277.8l7.47,5.38l3.82,4.37c0,0,6.9,2.31,8.41,3.64c1.51,1.33,4.71,4.14,5.48,4.03
			c0.87-0.12,2.5-0.21,2.5-0.21l1.62,0.91l2.11,4.24l1.82,0.75l3.39,0.12l3.18,3.26l2.46,7.37l3.62,2l1.44,3.3l3.62,2l12.01,8.89
			c0,0,10.8,7.47,11.54,8.38c0.74,0.91,1.45,2.81,1.45,2.81l4.7,1.35l7.37,5.58l4.55,3.02c0,0,4.59,4.79,7.01,7.63
			c2.42,2.84,13.56,8.75,16.61,10.43c3.04,1.68,7.73,6.28,7.73,6.28s-11.35-8.28-16.71-10.24c-5.36-1.96-11.48-4.34-11.45-5.33
			c0.03-0.98-3.77-5.84-8.98-6.72s-7.37-2.82-7.25-3.5c0.12-0.68-2.41-3.33-2.41-3.33l-5.69-0.89l-4.34-3.4c0,0-4.31-1.63-5.07-2.05
			c-0.76-0.42-5.29-3.93-6.61-5.16c-1.32-1.23-5.21-1.44-5.74-2.17c-2.41-3.33-3.58-5.74-4.05-6.25c-0.47-0.51-4.07-3-5.83-5.23
			c-1.77-2.23-7.87-5.1-7.87-5.1c-2.39-6.58-2.89-6.11-2.89-6.11l-3.69-2.79c0,0-3.58-5.74-4.16-6.05
			c-0.57-0.32-5.26-4.91-9.08-6.52c-1.73-3.21-5.07-7.56-5.07-7.56L316.66,277.8z"/>
		<path class="st1" d="M336.37,291.19c-1.5-1.33-8.4-3.64-8.4-3.64l-3.83-4.36l-7.48-5.39l7.03,7.14c0,0,1.55,2.03,3.09,4.34
			c2.03,0.72,6.13,2.25,7.25,3.24c1.51,1.33,5.12,3.33,5.49,4.03c0.32,0.62,1.47-1.39,1.75-1.89
			C340.11,293.74,337.56,292.26,336.37,291.19z"/>
	</g>
	<g>
		<g>
			<path class="st0" d="M360.27,228.2l5.44,13.21l0.44,0.87l3.38,6.75l4.42,1.91l1.17,6.52l2.59,0.86l0.52,2.35l3.75,4.4l0.09,4.88
				l6.18,1.06l4.53,3.62l7.5,5.62l7.19,9.55l11.05,3.44l8.39,6.54l10.37,5.93l1.36,4.06l5.92,1.33l9.04,1.37l21.48,11.56l18.56,1.51
				l-10.81-2.81l-20.57-8.49l-14.84-6.2l-8.26-4.01l-4.84-5.25l-10.43-6.57l-7.22-4.39l-9.18-3.83l-6.42-7.06l-10.09-7.6l-5.43-2.88
				l-2.68-5.8l-2.23-3.81l-3.4-2.4c0,0-3.21-5.69-8.72-11.92C365.77,239.46,360.27,228.2,360.27,228.2L360.27,228.2z"/>
		</g>
		<polygon class="st0" points="360.45,228.49 360.79,229.27 368.94,247.97 373.36,249.88 374.53,256.4 377.12,257.27 377.64,259.62 
			381.4,264.02 381.49,268.9 387.66,269.96 392.19,273.58 399.69,279.2 406.88,288.75 417.93,292.19 426.32,298.73 436.69,304.66 
			438.05,308.72 443.97,310.05 453.01,311.43 474.49,322.98 493.24,325.49 493.39,325.5 483.38,323.14 457.3,308.95 453.55,304.55 
			445.11,301.68 440.92,296.82 448.8,300.7 452.03,300.79 449.46,301.59 447.11,301.51 437.92,297.89 436.81,291.51 434.16,290.9 
			423.42,286.71 412.66,276.66 407.71,275.27 401.63,266.87 393.16,264.48 388.26,259.43 382.09,255.18 378.95,249.28 
			371.74,246.08 364.78,237.24 364.6,237 362.26,232.21 		"/>
		<polygon class="st0" points="360.24,228.16 360.79,229.27 362.26,232.21 364.78,237.24 365.78,239.23 366.21,240.1 369.6,246.86 
			374.02,248.77 375.19,255.29 377.78,256.15 378.3,258.51 382.05,262.9 382.14,267.79 388.32,268.85 392.85,272.47 400.35,278.09 
			407.54,287.64 418.58,291.08 426.97,297.62 437.34,303.55 438.71,307.61 444.62,308.94 453.66,310.31 475.14,321.87 
			493.24,325.49 493.63,325.56 484.04,322.03 457.95,307.84 454.4,303.67 453.65,304.04 452.03,300.79 446.52,299.36 444.33,295.71 
			438.84,294.67 436.81,291.51 434.82,289.79 424.08,285.6 413.32,275.54 408.37,274.15 402.29,265.75 393.81,263.37 388.91,258.31 
			382.75,254.07 379.6,248.17 379.6,248.16 376,246.57 372.39,244.97 372.39,244.96 365.25,235.89 360.45,228.49 360.27,228.2 		"/>
		<polygon class="st1" points="360.27,228.2 365.78,239.23 366.21,240.1 370.71,245.83 377.93,249.02 381.08,254.93 387.24,259.17 
			392.14,264.23 400.62,266.62 406.69,275.01 411.64,276.4 422.41,286.46 433.15,290.65 439.47,297.52 446.38,296.88 450.62,303.91 
			458.05,308.1 448.05,296.02 448.05,296.02 440.18,294.43 434.82,289.79 424.08,285.6 413.32,275.54 408.37,274.15 402.29,265.75 
			402.29,265.75 393.81,263.37 388.91,258.31 382.75,254.07 379.6,248.17 376,246.57 372.39,244.96 365.25,235.89 		"/>
	</g>
</g>
</svg>
